<?xml version="1.0" standalone="no"?>
<!DOCTYPE svg PUBLIC "-//W3C//DTD SVG 1.1//EN" "http://www.w3.org/Graphics/SVG/1.1/DTD/svg11.dtd">
<svg width="100%" height="100%" viewBox="0 0 800 897" version="1.1" xmlns="http://www.w3.org/2000/svg" xmlns:xlink="http://www.w3.org/1999/xlink" xml:space="preserve" style="fill-rule:evenodd;clip-rule:evenodd;stroke-linejoin:round;stroke-miterlimit:1.41421;">
    <g transform="matrix(1,0,0,1,-101,-52.9999)">
        <g id="Layer 1">
            <path d="M857.753,757.408L544.246,938.411C517.485,953.862 484.514,953.862 457.753,938.411L144.246,757.408C117.485,741.957 101,713.404 101,682.503L101,320.496C101,289.595 117.485,261.041 144.246,245.591L457.753,64.588C484.514,49.137 517.485,49.137 544.246,64.588L857.753,245.591C884.514,261.041 901,289.595 901,320.496L901,682.503C901,713.404 884.514,741.957 857.753,757.408" style="fill:rgb(57,85,110);fill-rule:nonzero;"/>
            <path d="M435.477,798.422C435.477,803.347 438.248,807.858 442.64,810.084C447.029,812.298 452.302,811.881 456.282,808.969L500.999,776.204L545.717,808.969C548.003,810.642 550.718,811.498 553.446,811.498C555.464,811.498 557.49,811.029 559.359,810.084C563.751,807.858 566.522,803.347 566.522,798.422L566.522,658.114C566.522,653.368 562.675,649.521 557.929,649.521L548.964,649.521C544.218,649.521 540.371,653.368 540.371,658.114L540.371,772.633L508.729,749.448C504.128,746.077 497.871,746.077 493.27,749.448L461.628,772.633L461.628,658.114C461.628,653.368 457.781,649.521 453.035,649.521L444.07,649.521C439.324,649.521 435.477,653.368 435.477,658.114L435.477,798.422Z" style="fill:rgb(240,89,40);fill-rule:nonzero;"/>
            <path d="M542.629,297.36C542.629,303.326 539.889,308.785 535.107,312.337C531.813,314.785 527.93,316.054 523.961,316.054C522.124,316.054 520.272,315.78 518.447,315.232C507.035,311.792 494.971,311.797 483.553,315.232C477.786,316.964 471.71,315.917 466.892,312.337C462.113,308.785 459.37,303.326 459.37,297.36C459.37,289.984 463.657,283.288 470.291,280.3C489.806,271.512 512.193,271.51 531.71,280.3C538.345,283.288 542.629,289.984 542.629,297.36M532.619,547.981L532.619,621.711C532.619,625.53 535.715,628.626 539.534,628.626L559.573,628.626C563.392,628.626 566.488,625.53 566.488,621.711L566.488,308.86C566.488,268.475 544.641,230.275 508.783,213.56C503.868,211.269 498.134,211.269 493.219,213.56C457.361,230.275 435.512,268.475 435.512,308.86L435.512,621.711C435.512,625.53 438.608,628.626 442.427,628.626L462.204,628.626C466.023,628.626 469.119,625.53 469.119,621.711L469.119,547.981C469.119,542.899 473.239,538.779 478.322,538.779L523.417,538.779C528.499,538.779 532.619,542.899 532.619,547.981" style="fill:white;fill-rule:nonzero;"/>
            <path d="M294.101,595.279C294.101,599.465 296.82,603.13 301.006,603.13L408.336,603.13C412.154,603.13 415.25,600.034 415.25,596.215L415.25,572.977C415.25,569.158 412.154,566.063 408.336,566.063L333.736,566.063C327.257,566.063 322.744,559.63 324.949,553.538C326.288,549.838 329.801,547.374 333.736,547.374L408.336,547.374C412.154,547.374 415.25,544.278 415.25,540.459L415.251,392.934C415.251,388.887 409.716,387.713 408.135,391.438C389.195,436.058 362.022,479.347 326.97,520.408C326.97,520.408 294.101,557.717 294.101,595.279" style="fill:rgb(201,208,210);fill-rule:nonzero;"/>
            <path d="M707.899,595.279C707.899,599.465 705.18,603.13 700.994,603.13L593.665,603.13C589.846,603.13 586.75,600.034 586.75,596.215L586.75,572.977C586.75,569.158 589.846,566.063 593.665,566.063L668.264,566.063C674.743,566.063 679.256,559.63 677.051,553.538C675.712,549.838 672.199,547.374 668.264,547.374L593.665,547.374C589.846,547.374 586.75,544.278 586.75,540.459L586.75,392.934C586.75,388.887 592.284,387.713 593.865,391.438C612.805,436.058 639.978,479.347 675.03,520.408C675.03,520.408 707.899,557.717 707.899,595.279" style="fill:rgb(201,208,210);fill-rule:nonzero;"/>
            <path d="M506.368,678.638L495.631,678.638C492.241,678.638 489.494,675.89 489.494,672.5L489.494,565.62C489.494,562.23 492.241,559.482 495.631,559.482L506.368,559.482C509.758,559.482 512.506,562.23 512.506,565.62L512.506,672.5C512.506,675.89 509.758,678.638 506.368,678.638" style="fill:rgb(201,208,210);fill-rule:nonzero;"/>
        </g>
    </g>
</svg>
