<?xml version="1.0" encoding="UTF-8" standalone="no"?>
<svg width="20px" height="14px" viewBox="0 0 20 14" version="1.1" xmlns="http://www.w3.org/2000/svg" xmlns:xlink="http://www.w3.org/1999/xlink" xmlns:sketch="http://www.bohemiancoding.com/sketch/ns">
    <!-- Generator: Sketch 3.5.1 (25234) - http://www.bohemiancoding.com/sketch -->
    <title>ico-nav</title>
    <desc>Created with Sketch.</desc>
    <defs></defs>
    <g id="Page-1" stroke="none" stroke-width="1" fill="none" fill-rule="evenodd" sketch:type="MSPage">
        <g id="ico-nav" sketch:type="MSLayerGroup" fill="#F8F9F9">
            <g id="Line-+-Line-Copy-18-+-Line-Copy-19" sketch:type="MSShapeGroup">
                <path d="M1.05100603,2 L18.948994,2 L20,2 L20,0 L18.948994,0 L1.05100603,0 L0,0 L0,2 L1.05100603,2 L1.05100603,2 Z" id="Shape"></path>
                <path d="M1.05100603,14 L18.948994,14 L20,14 L20,12 L18.948994,12 L1.05100603,12 L0,12 L0,14 L1.05100603,14 L1.05100603,14 Z" id="Shape"></path>
                <path d="M1.05100603,8 L18.948994,8 L20,8 L20,6 L18.948994,6 L1.05100603,6 L0,6 L0,8 L1.05100603,8 L1.05100603,8 Z" id="Shape"></path>
            </g>
        </g>
    </g>
</svg>