<?xml version="1.0" encoding="UTF-8" standalone="no"?>
<svg width="37px" height="30px" viewBox="0 0 37 30" version="1.1" xmlns="http://www.w3.org/2000/svg" xmlns:xlink="http://www.w3.org/1999/xlink" xmlns:sketch="http://www.bohemiancoding.com/sketch/ns">
    <!-- Generator: Sketch 3.5.1 (25234) - http://www.bohemiancoding.com/sketch -->
    <title>ico-twitter</title>
    <desc>Created with Sketch.</desc>
    <defs></defs>
    <g id="Page-1" stroke="none" stroke-width="1" fill="none" fill-rule="evenodd" sketch:type="MSPage">
        <g id="ico-twitter" sketch:type="MSLayerGroup" fill="#FFFFFF">
            <path d="M12.2525391,29.8330878 C25.8146484,29.4951923 33.2208984,18.2120425 33.2208984,8.40725808 C33.2208984,8.08041254 33.2138672,7.75531171 33.1992188,7.43253721 C34.6816406,6.37058004 35.9689453,5.04342433 36.9861328,3.53307225 C35.625,4.13209521 34.1625,4.53687192 32.6273438,4.71890508 C34.1941406,3.78663925 35.3976563,2.31060017 35.9642578,0.55133375 C34.4976563,1.41439204 32.8734375,2.04133062 31.1449219,2.37922612 C29.7597656,0.915400125 27.7875,0 25.6048828,0 C21.4130859,0 18.0146485,3.37313896 18.0146485,7.53373138 C18.0146485,8.12403071 18.0820313,8.6986275 18.2115234,9.24996121 C11.9033203,8.93591037 6.31113283,5.93672458 2.56757813,1.3794975 C1.91425781,2.49205179 1.53984375,3.78605771 1.53984375,5.16671837 C1.53984375,7.77973792 2.87988283,10.0856855 4.91660158,11.4366858 C3.67207033,11.3977202 2.50195312,11.0586616 1.47832031,10.4945332 C1.47773438,10.5259383 1.47773438,10.557925 1.47773438,10.58933 C1.47773438,14.239299 4.09394533,17.2838477 7.56621096,17.9759227 C6.92929688,18.1480692 6.25898438,18.2405397 5.56640625,18.2405397 C5.07773438,18.2405397 4.60195312,18.1928505 4.13847658,18.1050326 C5.1046875,21.097821 7.90722654,23.275822 11.2289063,23.3368874 C8.63085938,25.3572813 5.35839846,26.5617246 1.80292969,26.5617246 C1.19296875,26.5617246 0.591210938,26.5262485 0,26.457041 L0,26.461112 C3.24082033,28.5216346 7.06875,29.7499225 11.1826172,29.8330878 L12.2525391,29.8330878" sketch:type="MSShapeGroup"></path>
        </g>
    </g>
</svg>